<?xml version="1.0" encoding="UTF-8" standalone="no"?>
<!-- Created with Inkscape (http://www.inkscape.org/) -->

<svg
   width="309.99246"
   height="319.61438"
   viewBox="0 0 82.018835 84.56464"
   version="1.1"
   id="svg5"
   xml:space="preserve"
   xmlns:inkscape="http://www.inkscape.org/namespaces/inkscape"
   xmlns:sodipodi="http://sodipodi.sourceforge.net/DTD/sodipodi-0.dtd"
   xmlns="http://www.w3.org/2000/svg"
   xmlns:svg="http://www.w3.org/2000/svg"><sodipodi:namedview
     id="namedview7"
     pagecolor="#ffffff"
     bordercolor="#000000"
     borderopacity="0.25"
     inkscape:showpageshadow="2"
     inkscape:pageopacity="0.0"
     inkscape:pagecheckerboard="0"
     inkscape:deskcolor="#d1d1d1"
     inkscape:document-units="mm"
     showgrid="false" /><defs
     id="defs2" /><g
     inkscape:label="Sloj 1"
     inkscape:groupmode="layer"
     id="layer1"
     transform="translate(-22.06562,-23.90233)"><circle
       style="display:inline;fill:none;stroke:#0047bb;stroke-width:6.365;stroke-dasharray:none;stroke-opacity:1"
       id="path908"
       cy="66.239937"
       cx="61.849033"
       r="5.6140862" /><path
       style="fill:none;stroke:#0047bb;stroke-width:1.265;stroke-linecap:round;stroke-dasharray:none;stroke-opacity:1;image-rendering:auto"
       id="path908-8-0"
       sodipodi:type="arc"
       sodipodi:cx="61.798016"
       sodipodi:cy="66.182251"
       sodipodi:rx="16.873621"
       sodipodi:ry="16.873621"
       sodipodi:start="0.86570541"
       sodipodi:end="0.8655962"
       sodipodi:arc-type="arc"
       d="M 72.733861,79.032401 A 16.873621,16.873621 0 0 1 48.948164,77.118447 16.873621,16.873621 0 0 1 50.861468,53.332698 16.873621,16.873621 0 0 1 74.64727,55.245353 16.873621,16.873621 0 0 1 72.735264,79.031207"
       sodipodi:open="true" /><path
       style="fill:none;stroke:#0047bb;stroke-width:1.265;stroke-linecap:round;stroke-dasharray:none;stroke-opacity:1;image-rendering:auto"
       id="path1843"
       sodipodi:type="arc"
       sodipodi:cx="61.798016"
       sodipodi:cy="66.182251"
       sodipodi:rx="28.014296"
       sodipodi:ry="28.014296"
       sodipodi:start="0.86570541"
       sodipodi:end="0.8655962"
       sodipodi:arc-type="arc"
       d="M 79.954167,87.516611 A 28.014296,28.014296 0 0 1 40.464151,84.338984 28.014296,28.014296 0 0 1 43.6407,44.848882 28.014296,28.014296 0 0 1 83.130889,48.024353 28.014296,28.014296 0 0 1 79.956496,87.514629"
       sodipodi:open="true" /><path
       style="fill:none;stroke:#0047bb;stroke-width:6.365;stroke-linecap:round;stroke-dasharray:none;stroke-opacity:1;image-rendering:auto"
       id="path1845"
       sodipodi:type="arc"
       sodipodi:cx="61.798016"
       sodipodi:cy="66.182251"
       sodipodi:rx="28.014296"
       sodipodi:ry="28.014296"
       sodipodi:start="0.40465545"
       sodipodi:end="3.130875"
       sodipodi:arc-type="arc"
       d="M 87.549823,77.211537 A 28.014296,28.014296 0 0 1 56.315681,93.654869 28.014296,28.014296 0 0 1 33.785329,66.482493"
       sodipodi:open="true" /><path
       style="fill:none;stroke:#0047bb;stroke-width:1.265;stroke-linecap:round;stroke-dasharray:none;stroke-opacity:1;image-rendering:auto"
       id="path1849"
       sodipodi:type="arc"
       sodipodi:cx="61.798016"
       sodipodi:cy="66.182251"
       sodipodi:rx="39.103004"
       sodipodi:ry="39.103004"
       sodipodi:start="0.86570541"
       sodipodi:end="0.8655962"
       sodipodi:arc-type="arc"
       d="m 87.140793,95.961247 a 39.103004,39.103004 0 0 1 -55.121081,-4.435406 39.103004,39.103004 0 0 1 4.4339,-55.121202 39.103004,39.103004 0 0 1 55.121324,4.432396 39.103004,39.103004 0 0 1 -4.430891,55.121444"
       sodipodi:open="true" /><path
       style="fill:none;stroke:#0047bb;stroke-width:6.365;stroke-linecap:round;stroke-dasharray:none;stroke-opacity:1;image-rendering:auto"
       id="path1851"
       sodipodi:type="arc"
       sodipodi:cx="61.798016"
       sodipodi:cy="66.182251"
       sodipodi:rx="39.103004"
       sodipodi:ry="39.103004"
       sodipodi:start="3.9502884"
       sodipodi:end="1.5644849"
       sodipodi:arc-type="arc"
       d="M 34.799639,37.895635 A 39.103004,39.103004 0 0 1 81.802467,32.583637 39.103004,39.103004 0 0 1 99.532367,76.437186 39.103004,39.103004 0 0 1 62.04481,105.28448"
       sodipodi:open="true" /><path
       style="fill:none;stroke:#0047bb;stroke-width:6.365;stroke-linecap:round;stroke-dasharray:none;stroke-opacity:1;image-rendering:auto"
       id="path2806"
       sodipodi:type="arc"
       sodipodi:cx="61.798016"
       sodipodi:cy="66.182251"
       sodipodi:rx="16.873621"
       sodipodi:ry="16.873621"
       sodipodi:start="3.5368512"
       sodipodi:end="5.49545"
       sodipodi:arc-type="arc"
       d="m 46.225401,59.685117 a 16.873621,16.873621 0 0 1 12.282574,-10.052631 16.873621,16.873621 0 0 1 15.193574,4.59046"
       sodipodi:open="true"
       inkscape:export-filename="mathoslogo.pdf"
       inkscape:export-xdpi="300"
       inkscape:export-ydpi="300" /></g></svg>
